<svg width="40" height="40" viewBox="0 0 40 40" fill="none" xmlns="http://www.w3.org/2000/svg">
<path d="M20 1.25C17.3736 1.25 14.7728 1.76359 12.3463 2.76145C9.91982 3.75931 7.71504 5.22189 5.85786 7.06569C2.10714 10.7894 0 15.8399 0 21.106C0 29.8824 5.74 37.3284 13.68 39.9692C14.68 40.1281 15 39.5126 15 38.9764V35.6208C9.46 36.8121 8.28 32.9601 8.28 32.9601C7.36 30.6568 6.06 30.0412 6.06 30.0412C4.24 28.8102 6.2 28.8499 6.2 28.8499C8.2 28.9889 9.26 30.895 9.26 30.895C11 33.9132 13.94 33.0196 15.08 32.5431C15.26 31.2525 15.78 30.3788 16.34 29.8824C11.9 29.386 7.24 27.6784 7.24 20.1132C7.24 17.9092 8 16.142 9.3 14.7322C9.1 14.2358 8.4 12.1708 9.5 9.49025C9.5 9.49025 11.18 8.95414 15 11.5156C16.58 11.0787 18.3 10.8603 20 10.8603C21.7 10.8603 23.42 11.0787 25 11.5156C28.82 8.95414 30.5 9.49025 30.5 9.49025C31.6 12.1708 30.9 14.2358 30.7 14.7322C32 16.142 32.76 17.9092 32.76 20.1132C32.76 27.6982 28.08 29.3661 23.62 29.8625C24.34 30.4781 25 31.6893 25 33.5359V38.9764C25 39.5126 25.32 40.1479 26.34 39.9692C34.28 37.3085 40 29.8824 40 21.106C40 18.4985 39.4827 15.9165 38.4776 13.5075C37.4725 11.0984 35.9993 8.9095 34.1421 7.06569C32.285 5.22189 30.0802 3.75931 27.6537 2.76145C25.2272 1.76359 22.6264 1.25 20 1.25Z" fill="#FAFAFA"/>
</svg>
