<svg width="40" height="40" viewBox="0 0 40 40" fill="none" xmlns="http://www.w3.org/2000/svg">
<g clip-path="url(#clip0_13_2161)">
<path d="M18.5814 0.0580342C27.4189 -0.554778 33.2789 3.77007 36.6294 9.03928C38.3094 11.6815 39.9578 15.694 39.9653 19.8169C39.9735 24.2966 38.5224 28.1757 36.6294 31.0221C34.6841 33.9476 32.1677 36.364 29.0169 37.9505C23.7497 40.6027 16.3888 40.6752 11.5674 38.1216C6.19783 35.2779 2.06955 31.2185 0.533299 24.1793C-0.0815444 21.3621 -0.152169 17.7222 0.704237 14.5993C0.905331 13.8666 1.27064 13.0957 1.55971 12.3752C2.94924 8.91366 5.31424 5.9035 8.23158 3.82163C9.40377 2.98507 10.826 2.15303 12.0806 1.59772C13.6419 0.906628 16.2703 0.218347 18.5814 0.0578779V0.0580342Z" fill="#0A0A0B"/>
<path d="M35.3465 20.3158C35.3465 28.6683 28.5754 35.4389 20.223 35.4389C11.8705 35.4389 5.09961 28.6683 5.09961 20.3158C5.09961 11.9635 11.8705 5.19238 20.223 5.19238C28.5754 5.19238 35.3465 11.9635 35.3465 20.3158Z" fill="#FAFAFA"/>
<path d="M18.5814 0.0580342C27.4189 -0.554778 33.2789 3.77007 36.6294 9.03928C38.3094 11.6815 39.9578 15.694 39.9653 19.8169C39.9735 24.2966 38.5224 28.1757 36.6294 31.0221C34.6841 33.9476 32.1677 36.364 29.0169 37.9505C23.7497 40.6027 16.3888 40.6752 11.5674 38.1216C6.19783 35.2779 2.06955 31.2185 0.533299 24.1793C-0.0815444 21.3621 -0.152169 17.7222 0.704237 14.5993C0.905331 13.8666 1.27064 13.0957 1.55971 12.3752C2.94924 8.91366 5.31424 5.9035 8.23158 3.82163C9.40377 2.98507 10.826 2.15303 12.0806 1.59772C13.6419 0.906628 16.2703 0.218347 18.5814 0.0578779V0.0580342ZM15.5877 1.51225C12.3049 2.36335 9.89814 3.88803 7.80377 5.53257C4.78408 7.9035 2.85877 11.2126 1.73096 15.1979C0.476112 19.6316 1.28205 24.9971 3.01392 28.3704C4.80986 31.8685 7.22127 34.5838 10.6266 36.4963C13.9397 38.3568 18.5994 39.5515 23.4571 38.6347C27.7731 37.8201 31.0511 35.9399 33.7214 33.1604C37.2942 29.4413 40.1658 22.5915 38.2549 15.3688C37.7441 13.4385 37.0763 11.4266 36.031 9.7235C35.4661 8.80335 34.6372 7.89819 33.8071 6.98632C30.6733 3.54491 25.6085 0.57944 19.0947 0.998815C17.8552 1.0785 16.7658 1.20663 15.5877 1.5121V1.51225Z" fill="#FAFAFA"/>
<path d="M21.1841 38.4998L38.66 21.0242L38.5658 20.93L21.0898 38.4054L21.1841 38.4996V38.4998ZM19.6564 37.1157L37.2084 19.5639L37.1142 19.4695L19.562 37.0212L19.6564 37.1156V37.1157ZM18.1286 35.732L35.757 18.1039L35.6627 18.0095L18.0344 35.6376L18.1286 35.732ZM16.6008 34.3479L34.3055 16.6435L34.2113 16.5493L16.5066 34.2537L16.6008 34.3479ZM15.0731 32.9639L32.8541 15.1834L32.7597 15.0892L14.9788 32.8696L15.0731 32.964V32.9639ZM13.5453 31.5804L31.4023 13.7231L31.3081 13.6289L13.4509 31.486L13.5453 31.5804ZM12.0175 30.196L29.9509 12.2629L29.8566 12.1687L11.9231 30.1018L12.0175 30.196ZM10.4897 28.8123L28.4994 10.8025L28.405 10.7082L10.3953 28.7176L10.4897 28.812V28.8123ZM8.96187 27.4282L27.0475 9.3423L26.9531 9.24824L8.8675 27.334L8.96187 27.4282ZM7.43406 26.0442L25.5962 7.8823L25.502 7.78792L7.33984 25.95L7.43406 26.0442ZM5.90625 24.6604L24.1448 6.42199L24.0505 6.32777L5.81203 24.566L5.90625 24.6604ZM4.37844 23.2764L22.6934 4.96199L22.5992 4.86761L4.28422 23.1821L4.37859 23.2765L4.37844 23.2764ZM2.85078 21.8925L21.2417 3.50136L21.1475 3.40714L2.75641 21.7982L2.85078 21.8925ZM1.32297 20.5085L19.7902 2.04136L19.6959 1.94714L1.22875 20.4143L1.32297 20.5085ZM1.22266 20.6851L19.0477 38.511L19.142 38.4167L1.31703 20.5909L1.22266 20.6851Z" fill="#0A0A0B"/>
<path d="M2.66797 19.2189L20.5277 37.0795L20.6219 36.9853L2.76219 19.1246L2.66797 19.2189ZM4.11344 17.7528L22.0078 35.6479L22.1022 35.5537L4.20781 17.6584L4.11344 17.7528ZM5.55906 16.2865L23.4881 34.2165L23.5823 34.1221L5.65328 16.1923L5.55906 16.2865ZM7.00453 14.8203L24.9683 32.7848L25.0625 32.6906L7.09875 14.7261L7.00453 14.8203ZM8.45 13.3542L26.4484 31.3534L26.5427 31.259L8.54437 13.2598L8.45 13.3542ZM9.89547 11.8879L27.9287 29.9218L28.0231 29.8275L9.98984 11.7937L9.89547 11.8879ZM11.3409 10.4217L29.4091 28.4904L29.5033 28.3961L11.4353 10.3275L11.3409 10.4217ZM12.7866 8.95559L30.8892 27.0587L30.9836 26.9643L12.8808 8.86121L12.7866 8.95559ZM14.232 7.48934L32.3695 25.627L32.4637 25.5328L14.3263 7.39512L14.232 7.48934ZM15.6777 6.02324L33.8495 24.1956L33.9439 24.1014L15.7719 5.92887L15.6777 6.02309V6.02324ZM17.1231 4.55699L35.3297 22.7639L35.4241 22.6695L17.2172 4.46262L17.123 4.55699H17.1231ZM18.5686 3.09074L36.81 21.3326L36.9044 21.2384L18.6628 2.99668L18.5686 3.0909V3.09074ZM20.0141 1.62465L38.2903 19.9009L38.3845 19.8067L20.1084 1.53027L20.0142 1.62465H20.0141Z" fill="#0A0A0B"/>
<path d="M32.7807 7.07115C31.2079 5.49834 29.2741 4.08099 26.9643 3.22209C24.5701 2.33177 21.8616 1.5813 18.6673 1.85349C13.5788 2.28724 10.0063 4.57021 7.29102 7.24224C5.38915 9.1138 3.95852 11.4072 3.01415 14.0852C1.62758 18.0172 1.7118 22.6583 3.27071 26.659C4.6004 30.0715 6.77696 32.8238 9.85696 34.9558C12.7523 36.9605 16.9081 38.5151 21.5754 38.1208C27.2602 37.6407 31.4196 34.7241 34.1491 31.3635C34.8476 30.5038 35.542 29.5319 35.9454 28.3697C36.3407 27.5322 36.5341 26.9632 36.7152 26.6591C37.4734 24.9602 37.8751 23.1679 37.9982 21.1847C38.3773 15.0854 36.0306 10.321 32.7807 7.0713V7.07115ZM31.1054 25.6544C31.0945 25.6777 31.0848 25.6993 31.0734 25.7232C30.7913 26.5302 30.3056 27.2049 29.8173 27.8021C27.9084 30.1357 24.9998 32.1608 21.0243 32.4943C17.7602 32.7679 14.8541 31.6885 12.8295 30.2966C11.0701 29.0872 9.73258 27.5899 8.79461 25.7905C8.73743 25.6822 8.19274 24.4274 8.19118 24.3722C7.44821 22.0676 7.38368 18.3619 8.14633 16.1382C8.65524 14.6538 9.50352 13.048 10.6268 11.7757C12.1779 10.0191 13.7301 8.89334 16.1868 8.09771C17.3084 7.73443 18.3126 7.36459 19.6937 7.32787C23.0616 7.23818 26.4913 8.75037 28.3327 10.4072C30.0251 11.9296 31.9537 14.8954 32.4387 17.6777C32.9376 20.5415 32.4051 23.3376 31.1054 25.6544Z" fill="#FAFAFA"/>
<path d="M25.2519 28.403C24.4225 28.403 23.6947 27.8777 23.4408 27.096L22.517 24.2815H17.8959L17.0378 27.0705C16.7787 27.8674 16.0453 28.4009 15.2117 28.4009C15.0117 28.4009 14.8128 28.3691 14.6209 28.3068C13.6245 28.0077 13.0587 26.9352 13.3641 25.9176L17.2645 13.5627C17.5176 12.7768 18.2633 12.2285 19.0778 12.2285H21.1519C21.9709 12.2285 22.7164 12.7674 22.9647 13.539L27.0667 25.8893C27.3947 26.899 26.8516 27.983 25.8566 28.3068C25.6598 28.3707 25.4566 28.403 25.2519 28.403Z" fill="#0A0A0B"/>
<path d="M25.2513 28.1355C24.5083 28.1355 23.8575 27.6658 23.6303 26.9667L22.7064 24.1517L22.6611 24.0141H17.7478L17.7044 24.1552L16.8461 26.9441C16.7769 27.1589 16.666 27.358 16.5197 27.53C16.3733 27.7019 16.1945 27.8432 15.9935 27.9459C15.7924 28.0485 15.5731 28.1105 15.348 28.1282C15.123 28.1459 14.8967 28.119 14.682 28.0491C13.7875 27.7805 13.2816 26.8195 13.5552 25.9075L17.4547 13.5553C17.6811 12.853 18.35 12.3609 19.0773 12.3609H21.1514C21.8839 12.3609 22.5523 12.8442 22.7739 13.5328L26.8764 25.8848C27.17 26.7886 26.6839 27.7595 25.7942 28.0491C25.6177 28.1064 25.435 28.1355 25.2514 28.1355H25.2513ZM25.2513 28.5355C25.4769 28.5355 25.7012 28.4998 25.9178 28.4295C27.0186 28.0711 27.6181 26.8739 27.2563 25.76L23.1539 13.4084C22.8795 12.5556 22.0569 11.9609 21.1512 11.9609H19.0772C18.1753 11.9609 17.3533 12.5656 17.0734 13.4337L13.1727 25.7898C12.8353 26.9147 13.4591 28.0995 14.5628 28.4309C14.7706 28.4983 14.9902 28.5333 15.2112 28.5333C16.1319 28.5333 16.9416 27.9436 17.2273 27.0647L18.0866 24.2728L17.8953 24.4141H22.5164L22.3264 24.2764L23.2502 27.0909C23.5308 27.9547 24.3355 28.5355 25.2513 28.5355Z" fill="#FAFAFA"/>
<path d="M9.93376 8.29051L9.92891 8.28379C9.4425 7.61723 9.58516 6.68473 10.3016 6.16191C11.0178 5.63926 11.938 5.78598 12.4244 6.45254L12.4294 6.4591C12.9158 7.12566 12.7731 8.05832 12.0567 8.58098C11.3403 9.10379 10.4202 8.95707 9.93376 8.29035V8.29051ZM11.7775 6.94488L11.7727 6.93832C11.5283 6.60332 11.0731 6.48832 10.7184 6.74707C10.3669 7.00363 10.3395 7.46066 10.5839 7.79566L10.5888 7.80223C10.8333 8.13723 11.2883 8.25238 11.6398 7.99598C11.9945 7.73691 12.022 7.27988 11.7775 6.94488ZM14.6233 3.92129L15.3542 3.68691L17.4034 6.06895L16.5903 6.32988L16.2342 5.90504L15.1788 6.24379L15.14 6.7952L14.3427 7.05098L14.6233 3.92129V3.92129ZM15.8259 5.3852L15.2713 4.70504L15.2122 5.58207L15.8259 5.3852ZM18.72 4.63801L18.7263 3.02441L19.5352 3.02754L19.5289 4.62473C19.5272 5.03941 19.7358 5.23723 20.0561 5.23879C20.3764 5.23988 20.5864 5.05191 20.588 4.64973L20.5944 3.03207L21.4033 3.0352L21.397 4.62816C21.3933 5.55613 20.862 5.96051 20.045 5.95723C19.228 5.95379 18.7164 5.53707 18.72 4.63801V4.63801ZM24.3242 4.35613L23.4997 4.10441L23.7034 3.43691L26.1144 4.1727L25.9106 4.8402L25.0861 4.58863L24.4509 6.66973L23.6892 6.43723L24.3242 4.35598V4.35613ZM28.2678 5.1041L28.9308 5.54535L28.335 6.44082L29.1861 7.00723L29.782 6.11176L30.445 6.55301L28.8528 8.94566L28.1897 8.50426L28.7948 7.5952L27.9436 7.02879L27.3386 7.93785L26.6756 7.4966L28.2678 5.1041ZM30.61 31.2591L30.6152 31.2655C31.1267 31.9132 31.0197 32.8505 30.3238 33.4004C29.628 33.95 28.7027 33.8386 28.1911 33.191L28.1861 33.1847C27.6744 32.5369 27.7816 31.5996 28.4773 31.0499C29.1733 30.5002 30.0984 30.6116 30.6102 31.2593L30.61 31.2591ZM28.8188 32.6743L28.8239 32.6807C29.0809 33.0061 29.54 33.1038 29.8848 32.8314C30.2263 32.5618 30.2363 32.1039 29.9791 31.7786L29.9739 31.7721C29.717 31.4468 29.2578 31.3489 28.9163 31.6188C28.5716 31.8911 28.5617 32.3488 28.8188 32.6743ZM26.1141 35.8124L25.3941 36.0788L23.242 33.7891L24.0428 33.4927L24.4173 33.9013L25.457 33.5164L25.4713 32.9639L26.2567 32.6733L26.1141 35.8124V35.8124ZM24.8481 34.403L25.4322 35.0579L25.4527 34.1791L24.8481 34.4029V34.403ZM21.9928 35.2658L22.0639 36.8779L21.2561 36.9135L21.1855 35.318C21.1672 34.9038 20.9494 34.7161 20.6294 34.7302C20.3095 34.7443 20.1086 34.9424 20.1263 35.3443L20.1977 36.9602L19.3898 36.996L19.3195 35.4046C19.2784 34.4775 19.7898 34.0482 20.6059 34.0121C21.4222 33.9761 21.9531 34.3677 21.9928 35.266V35.2658ZM16.3784 35.793L17.2108 36.0177L17.0289 36.6916L14.5948 36.0346L14.7767 35.3607L15.6092 35.5854L16.1764 33.4843L16.9455 33.6919L16.3783 35.793H16.3784ZM12.4436 35.2074L11.7603 34.798L12.3134 33.8752L11.4366 33.3496L10.8834 34.2724L10.2003 33.863L11.678 31.3977L12.3611 31.8071L11.7997 32.7439L12.6766 33.2696L13.238 32.3329L13.9213 32.7422L12.4436 35.2074Z" fill="#0A0A0B"/>
</g>
<defs>
<clipPath id="clip0_13_2161">
<rect width="40" height="40" fill="white"/>
</clipPath>
</defs>
</svg>
